<?xml version="1.0" encoding="utf-8"?>
<svg version="1.1" id="Layer_1" xmlns="http://www.w3.org/2000/svg" xmlns:xlink="http://www.w3.org/1999/xlink" x="0px" y="0px"
	 viewBox="0 0 1280 800" style="enable-background:new 0 0 1280 800;" xml:space="preserve">
<g id="XMLID_1_">
	<path id="XMLID_3_" d="M318.9,527.2l69.8-191.8l-2-50.8c-0.7-7.6-1-15.1-1-22.5c0-2.5,0.9-4.6,2.8-6.1c1.9-1.6,4.2-2.3,7-2.3
		c2.4,0,4.5,0.8,6.2,2.5c1.7,1.7,2.6,3.6,2.6,5.7v0.3c0,5.4-0.1,10.9-0.3,16.3c-0.2,5.4-0.3,10.7-0.3,15.8l33.1-89.6
		c1.1-2.7,2.9-4.9,5.4-6.4c2.5-1.6,5.3-2.3,8.4-2.3c4.1,0,7.5,1.3,10,3.8c2.5,2.5,3.8,5.4,3.8,8.8c0,0.8-0.1,1.6-0.3,2.3
		c-0.2,0.8-0.3,1.6-0.3,2.3l-60.3,139.5c0.2,6.4,0.3,13.1,0.2,20c-0.1,6.9-0.1,13.8,0,20.7c0.1,6.9,0.4,13.7,1,20.4
		c0.5,6.7,1.7,13,3.4,18.8l20.6-20.7c20.5-21.8,39.8-44.5,58-68c18.1-23.5,36.2-47.2,54.4-70.9l31.8-42.9l10.5-14.3l0.3-0.6
		c2.8-3.5,6.7-5.3,11.5-5.3c3.9,0,7.3,1.3,10,3.8c2.7,2.5,4.1,5.4,4.1,8.8c0,1.8-0.3,3.3-1,4.7L507.9,453.9
		c-0.7,1.8-2.1,2.6-4.3,2.6c-1.3,0-2.4-0.4-3.3-1.3c-0.9-0.9-1.3-1.8-1.3-2.8c0-0.2,0.1-0.3,0.2-0.4c0.1-0.1,0.2-0.2,0.2-0.4
		l57-162.3c-19.2,22.4-38.6,44.4-58.1,66.1c-19.5,21.7-39.9,42.8-61.1,63.2l-13.8,12.3c-2.4,2.1-4.7,4.3-7,6.4c-2.3,2.1-4.6,4-7,5.5
		l-0.3,0.3c-0.7,0.6-1.6,0.9-2.9,0.9c-1.3,0-2.4-0.4-3.3-1.2l-2.3-4.1c-2.2-5.3-3.8-11.9-4.7-19.8c-1-8-1.8-15.5-2.5-22.5l-1.6-16.9
		l-64.8,150c-0.7,1.8-2.1,2.6-4.3,2.6c-2.6,0-3.9-1.3-3.9-3.8C318.6,527.8,318.7,527.4,318.9,527.2z"/>
	<path id="XMLID_5_" d="M595,391.2l0.7,0.9c0.2,0,0.4,0.1,0.7,0.1c0.2,0.1,0.4,0.1,0.7,0.1c0.9,0,2.1-0.4,3.6-1.2l3.9-2.3
		c1.5-1.4,3.2-2.9,5.1-4.5c1.9-1.7,3.7-3.8,5.4-6.6l1.6-2c0.4-1.4,1-2.4,1.8-3.2c0.8-0.8,1.5-2,2.1-3.8l2.6-4.4
		c1.1-2.5,3.2-3.8,6.2-3.8c2,0,3.6,0.7,4.9,2c1.3,1.4,2,2.8,2,4.4c0,0.8-0.1,1.4-0.3,1.8l-1,1.2c-0.4,0.8-0.9,1.6-1.5,2.3
		c-0.5,0.8-1.1,1.6-1.8,2.3l-5.2,7l-5.2,6.7c-2.4,2.9-5.2,5.8-8.5,8.8l-2.6,2c-0.4,0.4-0.9,0.7-1.3,1c-0.4,0.3-1,0.6-1.6,1l-3.3,1.8
		c-1.1,0.4-2.4,0.8-3.9,1.2c-1.5,0.4-3.3,0.6-5.2,0.6c-1.1-0.2-2.3-0.4-3.8-0.7c-1.4-0.3-2.1-0.5-2.1-0.7c-1.8,3.1-3.6,5.8-5.6,8.2
		s-4.1,4.9-6.5,7.6l-4.6,3.8c-1.3,1-3,1.9-5.1,2.9c-2.1,1-4.3,1.5-6.7,1.5h-1.3c-3.5,0-6.9-1.3-10.3-3.8c-3.4-2.5-5.1-6.5-5.1-12
		c0-3.5,0.3-7,1-10.5l2-7.6l0.7-2.3l3.6-9.3l4.6-9.3c1.1-2.1,2.3-4.6,3.8-7.3c1.4-2.7,3-4.8,4.7-6.1l2.3-2.3
		c0.2-0.4,0.5-0.8,0.8-1.3c0.3-0.5,0.7-0.9,1.1-1.3l2.9-2c1.7-1,3.5-1.9,5.2-2.9c1.7-1,4.5-1.5,8.2-1.5c0.9,0,1.5,0.1,2,0.3h1.6
		c3.3,0.4,5.9,1.7,8,3.9c2.1,2.2,3.1,4.7,3.1,7.4v1.2l-0.3,1.5c0.4,1.2,0.7,2.3,0.8,3.4c0.1,1.1,0.2,2.1,0.2,3.1v3.2
		c0,1-0.1,1.9-0.2,2.9c-0.1,1-0.3,1.9-0.5,2.9l-1.3,5.3c-0.4,1.6-0.9,3-1.5,4.4c-0.5,1.4-1.1,2.8-1.8,4.4H595z M570.1,379.8
		c-2,2.3-3.7,4.8-5.2,7.3c-1.5,2.5-2.9,5.2-4.3,7.9l-1.3,4.1c-0.9,2.7-1.6,5-2.1,6.9c-0.5,1.9-0.7,3.6-0.5,5.1c0,1,0.1,1.9,0.3,2.9
		c0.2,1,0.4,1.5,0.7,1.5l2.3,0.3c0.2,0,1.5-0.7,3.9-2l2.9-2.6c0.4-0.8,0.9-1.3,1.3-1.5l3.6-5.3c1.1-2.1,2.2-4.4,3.3-6.7
		c1.1-2.3,1.9-4.7,2.3-7c-1.1-1.6-1.9-3.4-2.3-5.5c-0.4-2.1-0.7-4.1-0.7-5.8l-0.7-3.8c-0.7,0.6-1.3,1.3-2,2
		C571.1,378.2,570.5,379,570.1,379.8z"/>
	<path id="XMLID_8_" d="M641.5,371l-2.6,4.1l-3.6,6.1l-3.3,6.1c-2.2,4.1-4,8.3-5.6,12.6c-1.5,4.3-3.1,8.6-4.6,12.8l-0.7,2
		c0.4,0,0.7-0.1,0.7-0.3l6.2-6.7c0.7-0.6,1.3-1.2,1.8-1.8c0.5-0.6,1-1.2,1.5-1.8l6.2-7.6c3.7-4.7,7.5-9.6,11.3-14.7
		c3.8-5.2,7.6-10.5,11.3-15.9l5.2-7.9c1.3-1.9,2.6-4.2,3.8-6.9c1.2-2.6,3-3.8,5.4-3.6c1.5,0,2.8,0.5,3.8,1.6c1,1.1,1.5,2.2,1.5,3.4
		v0.9l-25.5,72.7l10.2-12.8l10.2-12.3l10.2-12c1.7-2.1,3.7-4.7,5.9-7.7c2.2-3,4.4-6,6.7-8.9c2.3-2.9,4.4-5.4,6.4-7.4
		c2-2,3.7-3.1,5.2-3.1c1.7,0,3.2,0.6,4.3,1.9c1.1,1.3,1.6,2.6,1.6,3.9c-0.2,1.8-1.4,4.3-3.4,7.6c-2.1,3.3-4,6-5.7,8.2l-19,25.4
		c-14.8,18.5-27.7,37.6-38.5,57.4c-10.8,19.7-20.5,40.2-29,61.4l-19,54.6c0,0.4-0.2,1.2-0.7,2.3l-0.3,0.9c-1.1,2.3-2.7,4.2-4.9,5.5
		c-2.2,1.4-4.5,2-6.9,2c-3.9,0-7.1-1.2-9.5-3.6c-2.4-2.4-3.6-5.1-3.6-8c0-0.6,0.1-1.2,0.2-1.9c0.1-0.7,0.4-1.3,0.8-1.9H575l1-2.3
		c3.5-9.3,7.1-18.5,10.8-27.6c3.7-9,7.6-18,11.8-27l54.7-130.5c-1.5,1.9-2.9,3.9-4.1,5.8c-1.2,1.9-2.5,3.8-3.8,5.5l-5.9,7.9
		l-6.5,7.6c-1.1,1-2.1,2.2-2.9,3.6c-0.9,1.5-2.2,2.8-3.9,3.9l-3.9,2.9l-2.9,1.2h-1.3c0,0.2-0.1,0.3-0.3,0.3h-1.3
		c-1.5-1.4-2.7-2.2-3.6-2.5c-0.9-0.3-1.5-0.4-1.8-0.4c-0.3,0-0.5,0-0.7,0c-0.1,0-0.2-0.4-0.2-1.2l-1.3-3.2c-0.2-0.8-0.3-1.8-0.3-3.2
		l0.7-7.9c0.2-4.5,0.9-9.1,2-13.9c1.1-4.8,2.2-9.6,3.3-14.4l1.6-7l1-4.4l1-5l0.7-2.6c0.4-2.7,1.9-4.9,4.3-6.6
		c2.4-1.7,5.1-2.5,8.2-2.5c3.5,0,6.4,1.1,8.7,3.4c2.3,2.2,3.4,4.7,3.4,7.4c0,1-0.2,2-0.7,3.1C642,369.3,641.7,370.3,641.5,371z"/>
	<path id="XMLID_10_" d="M908,287.6l-0.3-0.3h-0.3v-0.6l-1-0.6l-3.9-5c-5.5-5.8-11.8-10.5-19-14c-7.2-3.5-15.7-5.3-25.5-5.3
		c-6.5,0-12.7,0.7-18.5,2c-5.8,1.4-10.1,2.8-12.9,4.4c-9,3.3-17.6,7.6-26,12.8c-8.4,5.3-16.3,11.2-23.7,17.8
		c-7.4,6.6-14.1,13.8-20.1,21.6c-6,7.8-10.9,15.8-14.6,23.9l-3.6,7.3c-3.7,6.4-6.5,13.7-8.4,21.7c-1.9,8.1-2.8,15.7-2.8,22.9
		c0,7.4,1.1,14.6,3.3,21.7c2.2,7.1,5.7,13.8,10.5,20.1c4.8,6.3,10.9,12,18.3,17.1c7.4,5.1,16.4,9.1,26.9,12.3
		c8.9,2.7,18,4.5,27.2,5.4c9.2,0.9,18.4,1.3,27.8,1.3c20.1,0,40.2-2.1,60.4-6.4c20.2-4.3,39-9.5,56.5-15.8c0.4-0.2,1.3-0.3,2.6-0.3
		c1.7,0,3.3,0.5,4.6,1.6c1.3,1.1,2,2.6,2,4.5c0,1-0.4,2.2-1.1,3.6c-0.8,1.5-1.9,2.2-3.4,2.2c-20.5,5.4-41.2,10.2-61.9,14.2
		c-20.7,4-41.7,6-62.9,6c-10.7,0.2-21.8-0.4-33.2-1.9c-11.5-1.5-21.9-4-31.3-7.7l-9.2-3.5c-7.2-3.7-14.1-7.9-20.6-12.7
		c-6.6-4.8-12.3-10.4-17.2-16.8s-8.8-13.9-11.6-22.5c-2.8-8.6-4.3-18.4-4.3-29.5c0-7.4,0.7-14.8,2.1-22.3c1.4-7.5,3.7-14.7,6.7-21.7
		l1.3-4.1l2-4.1c5.7-13.8,13.4-26.8,23.1-39c9.7-12.2,20.7-22.8,32.9-32c12.2-9.1,25.3-16.3,39.3-21.6c14-5.3,28.2-7.9,42.6-7.9
		c5.9,0,11.9,0.7,18,2.2c6.1,1.5,11.8,3.7,17,6.7c5.2,3,9.9,6.9,14.1,11.5c4.1,4.7,7.3,10.3,9.5,16.9l1.6,7.3v2.3
		c0,1.8-0.6,3.3-1.8,4.5c-1.2,1.3-2.9,1.9-5.1,1.9C911.5,290.2,909.6,289.3,908,287.6z"/>
	<path id="XMLID_12_" d="M879.5,391.2l0.7,0.9c0.2,0,0.4,0.1,0.7,0.1c0.2,0.1,0.4,0.1,0.7,0.1c0.9,0,2.1-0.4,3.6-1.2l3.9-2.3
		c1.5-1.4,3.2-2.9,5.1-4.5c1.9-1.7,3.7-3.8,5.4-6.6l1.6-2c0.4-1.4,1-2.4,1.8-3.2c0.8-0.8,1.5-2,2.1-3.8l2.6-4.4
		c1.1-2.5,3.2-3.8,6.2-3.8c2,0,3.6,0.7,4.9,2c1.3,1.4,2,2.8,2,4.4c0,0.8-0.1,1.4-0.3,1.8l-1,1.2c-0.4,0.8-0.9,1.6-1.5,2.3
		c-0.5,0.8-1.1,1.6-1.8,2.3l-5.2,7l-5.2,6.7c-2.4,2.9-5.2,5.8-8.5,8.8l-2.6,2c-0.4,0.4-0.9,0.7-1.3,1c-0.4,0.3-1,0.6-1.6,1l-3.3,1.8
		c-1.1,0.4-2.4,0.8-3.9,1.2c-1.5,0.4-3.3,0.6-5.2,0.6c-1.1-0.2-2.3-0.4-3.8-0.7c-1.4-0.3-2.1-0.5-2.1-0.7c-1.8,3.1-3.6,5.8-5.6,8.2
		c-2,2.3-4.2,4.9-6.6,7.6l-4.6,3.8c-1.3,1-3,1.9-5.1,2.9c-2.1,1-4.3,1.5-6.7,1.5h-1.3c-3.5,0-6.9-1.3-10.3-3.8
		c-3.4-2.5-5.1-6.5-5.1-12c0-3.5,0.3-7,1-10.5l2-7.6l0.7-2.3l3.6-9.3l4.6-9.3c1.1-2.1,2.3-4.6,3.8-7.3c1.4-2.7,3-4.8,4.7-6.1
		l2.3-2.3c0.2-0.4,0.5-0.8,0.8-1.3c0.3-0.5,0.7-0.9,1.1-1.3l2.9-2c1.7-1,3.5-1.9,5.2-2.9c1.7-1,4.5-1.5,8.2-1.5c0.9,0,1.5,0.1,2,0.3
		h1.6c3.3,0.4,5.9,1.7,8,3.9c2.1,2.2,3.1,4.7,3.1,7.4v1.2l-0.3,1.5c0.4,1.2,0.7,2.3,0.8,3.4c0.1,1.1,0.2,2.1,0.2,3.1v3.2
		c0,1-0.1,1.9-0.2,2.9c-0.1,1-0.3,1.9-0.5,2.9l-1.3,5.3c-0.4,1.6-0.9,3-1.5,4.4c-0.5,1.4-1.1,2.8-1.8,4.4H879.5z M854.7,379.8
		c-2,2.3-3.7,4.8-5.2,7.3c-1.5,2.5-2.9,5.2-4.3,7.9l-1.3,4.1c-0.9,2.7-1.6,5-2.1,6.9c-0.5,1.9-0.7,3.6-0.5,5.1c0,1,0.1,1.9,0.3,2.9
		c0.2,1,0.4,1.5,0.7,1.5l2.3,0.3c0.2,0,1.5-0.7,3.9-2l2.9-2.6c0.4-0.8,0.9-1.3,1.3-1.5l3.6-5.3c1.1-2.1,2.2-4.4,3.3-6.7
		c1.1-2.3,1.9-4.7,2.3-7c-1.1-1.6-1.9-3.4-2.3-5.5c-0.4-2.1-0.7-4.1-0.7-5.8l-0.7-3.8c-0.7,0.6-1.3,1.3-2,2
		C855.6,378.2,855.1,379,854.7,379.8z"/>
	<path id="XMLID_15_" d="M943.1,332.5l5.2-14c1.7-4.7,3.4-9.4,4.9-14.2c1.5-4.8,3.1-9.6,4.6-14.4l0.7-2.3c0-0.4,0.1-0.6,0.2-0.7
		c0.1-0.1,0.2-0.3,0.2-0.7l1.6-5l1-3.5c0-0.4,0.1-0.6,0.2-0.7c0.1-0.1,0.2-0.2,0.2-0.4v-0.6c0-0.2,0.1-0.3,0.2-0.3
		c0.1,0,0.2-0.1,0.2-0.3l0.3-0.6c2.2-4.9,6.1-7.3,11.8-7.3c3.7,0,6.8,1.1,9.2,3.4c2.4,2.2,3.6,5,3.6,8.3c0,0.8-0.2,1.9-0.7,3.5
		l-2,4.7l-1.6,5c-8.1,21.6-15.7,43-22.9,64.2c-7.2,21.2-12.4,43.4-15.7,66.5c-0.2,0.8-0.3,1.6-0.3,2.3c0,0.8,0,1.6,0,2.3l3.6-5.3
		c2-3.1,4.1-6.2,6.4-9.3c2.3-3.1,4.5-6.3,6.7-9.6l12.1-19c1.1-1.6,2.1-3.2,3.1-4.8c1-1.7,2-3.3,3.1-4.8l6.2-9.9
		c1.1-1.6,2.6-2.3,4.6-2.3c1.7,0,3.2,0.5,4.3,1.5c1.1,1,1.6,2.1,1.6,3.5c0,0.8-0.2,1.6-0.7,2.3l-6.2,9.9c-2.8,4.5-5.9,9.2-9.2,14.2
		c-3.3,5-6.3,9.9-9.2,14.7l-13.1,19.3l-7.2,9.6c-1.8,2.1-3.7,4.5-5.7,7.2c-2.1,2.6-4.2,3.9-6.4,3.9c-2,0-3.5-0.7-4.6-2.2
		c-1.1-1.5-1.8-3.1-2.1-5c-0.3-1.9-0.5-3.6-0.5-5.3c0-1.7,0-2.8,0-3.4c0-0.6-0.1-1.1-0.2-1.6c-0.1-0.5-0.2-1-0.2-1.6
		c0-8,0.6-16.3,1.8-25c1.2-8.7,2.8-17.1,4.7-25.2l0.7-4.7c-4.4,7.2-8.7,14.7-12.9,22.6c-4.3,7.9-9.3,14.7-15.2,20.6l-2.9,2.9
		c-1.1,1.2-2.3,2.1-3.6,2.9l-4.3,2.6l-2.9,0.9c-0.4,0-0.8,0-1,0.1c-0.2,0.1-0.5,0.1-1,0.1c-1.7,0-3.2-0.3-4.4-1
		c-1.2-0.7-2-1.4-2.5-2.2l-1.6-3.2v-4.7c0-1,0.1-1.8,0.2-2.3c0.1-0.6,0.3-1.3,0.5-2l3.3-11.4c1.5-3.9,3-7.6,4.4-11.1
		c1.4-3.5,3.1-7.1,5.1-10.8l7.9-14.3c0.7-1.4,1.6-2.9,2.9-4.5c1.3-1.7,2.9-3.3,4.9-4.8l4.3-3.2l4.9-1.8h5.6c2.6,0,4.6,0.5,5.9,1.5
		c1.5-3.3,2.9-6.5,4.1-9.6C940.2,339,941.5,335.8,943.1,332.5z M927,369.6c-0.9,0.8-2,1.5-3.3,2c-1.3,0.6-2.5,1.4-3.6,2.3l-5.2,5
		l-4.6,5.8c-2.4,3.1-4.5,6.2-6.2,9.3c-1.7,3.1-3.5,6.3-5.2,9.6l-3.9,10.2l-0.3,4.7c0.7,0,1.4-0.4,2.3-1.2c0.9-0.8,1.8-1.6,2.6-2.3
		l2.3-2.6c1.5-1.6,3.1-3.4,4.7-5.5c1.6-2.1,3-4.3,4.1-6.4l3.6-6.4l3.9-6.7L927,369.6z"/>
	<path id="XMLID_18_" d="M983,415.4c-0.2,1.6-0.4,3-0.7,4.2c-0.2,1.3-0.3,2.6-0.3,3.9c0,1,0.1,2,0.3,3.2c0.2,1.2,0.4,1.8,0.7,2
		l0.7,2c0.2,0,0.3,0.1,0.3,0.3h1c1.5,0,3.2-0.5,5.1-1.5c1.9-1,3.7-2.1,5.6-3.5c1.9-1.4,3.7-2.9,5.4-4.5c1.7-1.7,3.3-3.1,4.6-4.2
		l6.5-7c1.1-1.2,2.1-2.4,3.1-3.6c1-1.3,2-2.5,3.1-3.6l5.9-7.6c1.7-2.5,3.5-5.1,5.4-7.6c1.9-2.5,3.7-5.2,5.4-7.9l4.9-8.2l4.3-7
		l0.7-1.2c0.4-1.2,1.3-2,2.5-2.6c1.2-0.6,2.5-0.9,3.8-0.9c2.2,0,3.9,0.6,5.2,1.9c1.3,1.3,2,2.7,2,4.2c0,0.8-0.2,1.8-0.7,2.9
		l-2.9,4.7l-5.9,7.9c-3.7,5.1-7,9.8-10,14.3c-2.9,4.5-6.5,9-10.6,13.4l-6.2,7.6c-3.1,3.9-6.7,7.9-10.8,12.1
		c-4.2,4.2-8.3,7.2-12.4,9.2l-2.3,1.8l-6.2,2.3c-2.6,0.6-4.6,0.9-5.9,0.9h-1.6c-3.1,0-5.8-1.1-8.4-3.4c-2.5-2.2-4.2-4.5-5.1-6.9
		l-1-3.2c-0.4-1.9-0.8-4-1.1-6.3c-0.3-2.2-0.5-4.4-0.5-6.6c0-1.4,0.1-2.7,0.2-4.1c0.1-1.4,0.2-2.7,0.2-4.1l0.7-4.7
		c1.1-8.2,2.7-16.4,4.9-24.8c2.2-8.4,5.7-16.1,10.5-23.3l3.6-4.7c1.8-2.5,4.3-5.2,7.7-8c3.4-2.8,7.5-4.2,12.3-4.2h2.3
		c0.9,0,2.9,0.4,6.1,1.3c3.2,0.9,5.6,2.8,7.4,5.7l2.3,4.1l1,4.4c0.2,1,0.3,2.1,0.3,3.5c0,3.7-0.8,7.5-2.3,11.4
		c-1.5,3.9-2.3,6.3-2.3,7.3l-1.3,2.3l-2,4.7l-2.6,4.7c-1.5,2.3-3.1,4.8-4.6,7.3c-1.5,2.5-3.5,4.7-5.9,6.4l-5.2,3.8l-3.3,1.8
		c-0.9,0.2-1.6,0.4-2.3,0.6c-0.7,0.2-1.4,0.3-2.3,0.3h-2.9c-0.4,0-1.2-0.1-2.3-0.4c-1.1-0.3-1.6-0.5-1.6-0.7l-1,3.8L983,415.4z
		 M990.6,396.1c0.2,0.4,0.3,0.8,0.3,1.2c1.1-1,2.7-2.8,4.9-5.4c2.2-2.6,3.3-5.8,3.3-9.5l0.3-1.2l1-6.7v-0.9l-0.7,1.2l-4.3,7.6
		l-3.9,7.9l-1.3,2.9c0,0.6,0.1,1.1,0.2,1.6C990.5,395.3,990.6,395.7,990.6,396.1z"/>
</g>
</svg>
